<svg xmlns="http://www.w3.org/2000/svg" viewBox="0 0 960 540" role="img" aria-labelledby="essential-supplies-guide-priority-t">
  <title id="essential-supplies-guide-priority-t">essential-supplies-guide-priority</title>
  <defs>
    <linearGradient id="essential-supplies-guide-priority-bg" x1="0%" y1="0%" x2="100%" y2="100%">
      <stop offset="0%" stop-color="hsl(268, 42%, 97%)"/><stop offset="100%" stop-color="hsl(268, 55%, 92%)"/>
    </linearGradient>
    <filter id="essential-supplies-guide-priority-sh" x="-20%" y="-20%" width="140%" height="140%">
      <feDropShadow dx="0" dy="8" stdDeviation="12" flood-color="#000" flood-opacity="0.08"/>
    </filter>
  </defs>
  <rect width="960" height="540" fill="url(#essential-supplies-guide-priority-bg)"/>
  
  <rect x="160" y="280" width="640" height="24" rx="12" fill="hsl(268, 12%, 58%)" opacity="0.25"/>
  
  <rect x="240" y="220" width="120" height="140" rx="16" fill="#ffffff" filter="url(#essential-supplies-guide-priority-sh)"/>
  <rect x="256" y="240" width="88" height="10" rx="5" fill="hsl(268, 55%, 92%)"/>
  <circle cx="300" cy="324" r="20" fill="hsl(268, 60%, 88%)"/>
  <rect x="400" y="200" width="100" height="160" rx="16" fill="#ffffff" filter="url(#essential-supplies-guide-priority-sh)"/>
  <rect x="416" y="220" width="68" height="10" rx="5" fill="hsl(268, 55%, 92%)"/>
  <circle cx="450" cy="324" r="20" fill="hsl(268, 68%, 48%)"/>
  <rect x="540" y="210" width="130" height="150" rx="16" fill="#ffffff" filter="url(#essential-supplies-guide-priority-sh)"/>
  <rect x="556" y="230" width="98" height="10" rx="5" fill="hsl(268, 55%, 92%)"/>
  <circle cx="605" cy="324" r="20" fill="hsl(268, 60%, 88%)"/>
  <ellipse cx="720" cy="250" rx="55" ry="45" fill="hsl(268, 60%, 88%)"/>
  <ellipse cx="720" cy="265" rx="35" ry="28" fill="hsl(268, 68%, 48%)" opacity="0.35"/>

</svg>