<svg xmlns="http://www.w3.org/2000/svg" viewBox="0 0 960 540" role="img" aria-labelledby="multi-pet-space-sharing-observe-t">
  <title id="multi-pet-space-sharing-observe-t">multi-pet-space-sharing-observe</title>
  <defs>
    <linearGradient id="multi-pet-space-sharing-observe-bg" x1="0%" y1="0%" x2="100%" y2="100%">
      <stop offset="0%" stop-color="hsl(212, 42%, 97%)"/><stop offset="100%" stop-color="hsl(212, 55%, 92%)"/>
    </linearGradient>
    <filter id="multi-pet-space-sharing-observe-sh" x="-20%" y="-20%" width="140%" height="140%">
      <feDropShadow dx="0" dy="8" stdDeviation="12" flood-color="#000" flood-opacity="0.08"/>
    </filter>
  </defs>
  <rect width="960" height="540" fill="url(#multi-pet-space-sharing-observe-bg)"/>
  
  <rect x="180" y="110" width="420" height="320" rx="28" fill="#ffffff" filter="url(#multi-pet-space-sharing-observe-sh)"/>
  <polyline points="220,350 280,300 340,320 400,240 460,260 520,180" fill="none" stroke="hsl(212, 68%, 48%)" stroke-width="4" stroke-linecap="round" stroke-linejoin="round"/>
  <circle cx="520" cy="180" r="8" fill="hsl(212, 68%, 48%)"/>
  <rect x="220" y="380" width="0" height="0"/><rect x="220" y="380" width="0" height="0"/><rect x="220" y="380" width="0" height="0"/><rect x="220" y="380" width="0" height="0"/>
  <path d="M660 200c0-55 45-100 100-100s100 45 100 100-45 100-100 100" fill="hsl(212, 60%, 88%)"/>
  <path d="M760 170v60M730 200h60" stroke="hsl(212, 68%, 48%)" stroke-width="10" stroke-linecap="round"/>
  <rect x="220" y="380" width="360" height="2" fill="hsl(212, 55%, 92%)"/>

</svg>