<svg xmlns="http://www.w3.org/2000/svg" viewBox="0 0 960 540" role="img" aria-labelledby="daily-grooming-basics-tools-t">
  <title id="daily-grooming-basics-tools-t">daily-grooming-basics-tools</title>
  <defs>
    <linearGradient id="daily-grooming-basics-tools-bg" x1="0%" y1="0%" x2="100%" y2="100%">
      <stop offset="0%" stop-color="hsl(185, 42%, 97%)"/><stop offset="100%" stop-color="hsl(185, 55%, 92%)"/>
    </linearGradient>
    <filter id="daily-grooming-basics-tools-sh" x="-20%" y="-20%" width="140%" height="140%">
      <feDropShadow dx="0" dy="8" stdDeviation="12" flood-color="#000" flood-opacity="0.08"/>
    </filter>
  </defs>
  <rect width="960" height="540" fill="url(#daily-grooming-basics-tools-bg)"/>
  
  <rect x="200" y="120" width="280" height="300" rx="24" fill="#ffffff" filter="url(#daily-grooming-basics-tools-sh)"/>
  <rect x="240" y="160" width="200" height="12" rx="6" fill="hsl(185, 55%, 92%)"/>
  <rect x="240" y="190" width="160" height="12" rx="6" fill="hsl(185, 55%, 92%)"/>
  <rect x="520" y="180" width="48" height="180" rx="16" fill="hsl(185, 60%, 88%)" stroke="hsl(185, 68%, 48%)" stroke-width="2"/>
  <rect x="528" y="200" width="32" height="6" rx="3" fill="hsl(185, 68%, 48%)" opacity="0.5"/><rect x="528" y="218" width="32" height="6" rx="3" fill="hsl(185, 68%, 48%)" opacity="0.5"/><rect x="528" y="236" width="32" height="6" rx="3" fill="hsl(185, 68%, 48%)" opacity="0.5"/><rect x="528" y="254" width="32" height="6" rx="3" fill="hsl(185, 68%, 48%)" opacity="0.5"/><rect x="528" y="272" width="32" height="6" rx="3" fill="hsl(185, 68%, 48%)" opacity="0.5"/><rect x="528" y="290" width="32" height="6" rx="3" fill="hsl(185, 68%, 48%)" opacity="0.5"/><rect x="528" y="308" width="32" height="6" rx="3" fill="hsl(185, 68%, 48%)" opacity="0.5"/><rect x="528" y="326" width="32" height="6" rx="3" fill="hsl(185, 68%, 48%)" opacity="0.5"/>
  <ellipse cx="360" cy="360" rx="90" ry="50" fill="hsl(185, 60%, 88%)"/>
  <circle cx="330" cy="330" r="40" fill="hsl(185, 68%, 48%)"/>
  <circle cx="318" cy="322" r="6" fill="#ffffff"/><circle cx="342" cy="322" r="6" fill="#ffffff"/>

</svg>