<svg xmlns="http://www.w3.org/2000/svg" viewBox="0 0 960 540" role="img" aria-labelledby="family-agreement-before-adoption-problem-t">
  <title id="family-agreement-before-adoption-problem-t">family-agreement-before-adoption-problem</title>
  <defs>
    <linearGradient id="family-agreement-before-adoption-problem-bg" x1="0%" y1="0%" x2="100%" y2="100%">
      <stop offset="0%" stop-color="hsl(212, 42%, 97%)"/><stop offset="100%" stop-color="hsl(212, 55%, 92%)"/>
    </linearGradient>
    <filter id="family-agreement-before-adoption-problem-sh" x="-20%" y="-20%" width="140%" height="140%">
      <feDropShadow dx="0" dy="8" stdDeviation="12" flood-color="#000" flood-opacity="0.08"/>
    </filter>
  </defs>
  <rect width="960" height="540" fill="url(#family-agreement-before-adoption-problem-bg)"/>
  
  <rect x="180" y="100" width="600" height="340" rx="28" fill="#ffffff" filter="url(#family-agreement-before-adoption-problem-sh)"/>
  <rect x="180" y="100" width="600" height="64" rx="28" fill="hsl(212, 68%, 48%)"/>
  <rect x="180" y="148" width="600" height="16" fill="hsl(212, 68%, 48%)"/>
  <rect x="220" y="190" width="56" height="56" rx="12" fill="hsl(212, 55%, 92%)" stroke="none" stroke-width="2"/><rect x="296" y="190" width="56" height="56" rx="12" fill="hsl(212, 55%, 92%)" stroke="none" stroke-width="2"/><rect x="372" y="190" width="56" height="56" rx="12" fill="hsl(212, 55%, 92%)" stroke="none" stroke-width="2"/><rect x="448" y="190" width="56" height="56" rx="12" fill="hsl(212, 60%, 88%)" stroke="hsl(212, 68%, 48%)" stroke-width="2"/><rect x="524" y="190" width="56" height="56" rx="12" fill="hsl(212, 55%, 92%)" stroke="none" stroke-width="2"/><rect x="600" y="190" width="56" height="56" rx="12" fill="hsl(212, 55%, 92%)" stroke="none" stroke-width="2"/><rect x="676" y="190" width="56" height="56" rx="12" fill="hsl(212, 55%, 92%)" stroke="none" stroke-width="2"/>
  <rect x="228" y="268" width="40" height="8" rx="4" fill="hsl(212, 55%, 92%)" opacity="0.7"/><rect x="304" y="268" width="40" height="8" rx="4" fill="hsl(212, 55%, 92%)" opacity="0.7"/><rect x="380" y="268" width="40" height="8" rx="4" fill="hsl(212, 55%, 92%)" opacity="0.7"/><rect x="456" y="268" width="40" height="8" rx="4" fill="hsl(212, 55%, 92%)" opacity="0.7"/><rect x="532" y="268" width="40" height="8" rx="4" fill="hsl(212, 55%, 92%)" opacity="0.7"/><rect x="608" y="268" width="40" height="8" rx="4" fill="hsl(212, 55%, 92%)" opacity="0.7"/><rect x="684" y="268" width="40" height="8" rx="4" fill="hsl(212, 55%, 92%)" opacity="0.7"/><rect x="228" y="324" width="40" height="8" rx="4" fill="hsl(212, 55%, 92%)" opacity="0.7"/><rect x="304" y="324" width="40" height="8" rx="4" fill="hsl(212, 55%, 92%)" opacity="0.7"/><rect x="380" y="324" width="40" height="8" rx="4" fill="hsl(212, 68%, 48%)" opacity="1"/><rect x="456" y="324" width="40" height="8" rx="4" fill="hsl(212, 55%, 92%)" opacity="0.7"/><rect x="532" y="324" width="40" height="8" rx="4" fill="hsl(212, 55%, 92%)" opacity="0.7"/><rect x="608" y="324" width="40" height="8" rx="4" fill="hsl(212, 55%, 92%)" opacity="0.7"/><rect x="684" y="324" width="40" height="8" rx="4" fill="hsl(212, 55%, 92%)" opacity="0.7"/><rect x="228" y="380" width="40" height="8" rx="4" fill="hsl(212, 55%, 92%)" opacity="0.7"/><rect x="304" y="380" width="40" height="8" rx="4" fill="hsl(212, 55%, 92%)" opacity="0.7"/><rect x="380" y="380" width="40" height="8" rx="4" fill="hsl(212, 55%, 92%)" opacity="0.7"/><rect x="456" y="380" width="40" height="8" rx="4" fill="hsl(212, 55%, 92%)" opacity="0.7"/><rect x="532" y="380" width="40" height="8" rx="4" fill="hsl(212, 55%, 92%)" opacity="0.7"/><rect x="608" y="380" width="40" height="8" rx="4" fill="hsl(212, 55%, 92%)" opacity="0.7"/><rect x="684" y="380" width="40" height="8" rx="4" fill="hsl(212, 55%, 92%)" opacity="0.7"/>
  <circle cx="780" cy="180" r="50" fill="hsl(212, 68%, 48%)" opacity="0.9"/>
  <path d="M755 180h50M780 155v50" stroke="#ffffff" stroke-width="4" stroke-linecap="round"/>

</svg>