<svg xmlns="http://www.w3.org/2000/svg" viewBox="0 0 960 540" role="img" aria-labelledby="first-week-checklist-why-first-week-t">
  <title id="first-week-checklist-why-first-week-t">first-week-checklist-why-first-week</title>
  <defs>
    <linearGradient id="first-week-checklist-why-first-week-bg" x1="0%" y1="0%" x2="100%" y2="100%">
      <stop offset="0%" stop-color="hsl(42, 42%, 97%)"/><stop offset="100%" stop-color="hsl(42, 55%, 92%)"/>
    </linearGradient>
    <filter id="first-week-checklist-why-first-week-sh" x="-20%" y="-20%" width="140%" height="140%">
      <feDropShadow dx="0" dy="8" stdDeviation="12" flood-color="#000" flood-opacity="0.08"/>
    </filter>
  </defs>
  <rect width="960" height="540" fill="url(#first-week-checklist-why-first-week-bg)"/>
  
  <rect x="200" y="90" width="560" height="360" rx="28" fill="#ffffff" filter="url(#first-week-checklist-why-first-week-sh)"/>
  <rect x="240" y="130" width="200" height="16" rx="8" fill="hsl(42, 60%, 88%)"/>
  <rect x="240" y="160" width="140" height="12" rx="6" fill="hsl(42, 55%, 92%)"/>
  
  <rect x="250" y="210" width="22" height="22" rx="6" fill="none" stroke="hsl(42, 68%, 48%)" stroke-width="2.5"/>
  <path d="M256 222l5 5 10-12" fill="none" stroke="hsl(42, 68%, 48%)" stroke-width="2.5" stroke-linecap="round"/>
  <rect x="290" y="214" width="180" height="12" rx="6" fill="hsl(42, 55%, 92%)"/>
  <rect x="250" y="254" width="22" height="22" rx="6" fill="none" stroke="hsl(42, 68%, 48%)" stroke-width="2.5"/>
  <path d="M256 266l5 5 10-12" fill="none" stroke="hsl(42, 68%, 48%)" stroke-width="2.5" stroke-linecap="round"/>
  <rect x="290" y="258" width="160" height="12" rx="6" fill="hsl(42, 55%, 92%)"/>
  <rect x="250" y="298" width="22" height="22" rx="6" fill="none" stroke="hsl(42, 68%, 48%)" stroke-width="2.5"/>
  <path d="M256 310l5 5 10-12" fill="none" stroke="hsl(42, 68%, 48%)" stroke-width="2.5" stroke-linecap="round"/>
  <rect x="290" y="302" width="140" height="12" rx="6" fill="hsl(42, 55%, 92%)"/>
  <rect x="250" y="342" width="22" height="22" rx="6" fill="none" stroke="hsl(42, 68%, 48%)" stroke-width="2.5"/>
  <path d="M256 354l5 5 10-12" fill="none" stroke="hsl(42, 68%, 48%)" stroke-width="2.5" stroke-linecap="round"/>
  <rect x="290" y="346" width="120" height="12" rx="6" fill="hsl(42, 55%, 92%)"/>
  <rect x="250" y="386" width="22" height="22" rx="6" fill="none" stroke="hsl(42, 68%, 48%)" stroke-width="2.5"/>
  <path d="M256 398l5 5 10-12" fill="none" stroke="hsl(42, 68%, 48%)" stroke-width="2.5" stroke-linecap="round"/>
  <rect x="290" y="390" width="100" height="12" rx="6" fill="hsl(42, 55%, 92%)"/>
  <circle cx="680" cy="300" r="72" fill="hsl(42, 60%, 88%)"/>
  <circle cx="680" cy="290" r="36" fill="hsl(42, 68%, 48%)"/>
  <ellipse cx="680" cy="318" rx="22" ry="16" fill="#ffffff"/>
  <circle cx="668" cy="282" r="5" fill="#ffffff"/><circle cx="692" cy="282" r="5" fill="#ffffff"/>

</svg>